<?xml version="1.0" encoding="UTF-8"?>
<svg width="279px" height="95px" viewBox="0 0 279 95" version="1.1" xmlns="http://www.w3.org/2000/svg" xmlns:xlink="http://www.w3.org/1999/xlink">
    <!-- Generator: Sketch 53 (72520) - https://sketchapp.com -->
    <title>logo-white</title>
    <desc>Created with Sketch.</desc>
    <g id="Page-1" stroke="none" stroke-width="1" fill="none" fill-rule="evenodd">
        <g id="logo-white" fill-rule="nonzero">
            <path d="M30.1367,12.75 C39.603,12.75 49.741,17.709 49.741,30.923 C49.741,37.534 46.939,41.908 42.208,45.018 C46.939,48.127 49.741,52.502 49.741,59.112 C49.741,72.332 39.598,77.286 30.1367,77.286 L-7.10542736e-15,77.286 L-7.10542736e-15,12.75 L30.1367,12.75 Z M30.0352,20.914 L8.6943,20.914 L8.6943,40.938 L30.0409,40.938 C36.6095,40.938 41.052,37.534 41.052,30.929 C41.047,24.319 36.6038,20.914 30.0352,20.914 Z M30.0352,49.103 L8.6943,49.103 L8.6943,69.127 L30.0409,69.127 C36.6095,69.127 41.052,65.722 41.052,59.118 C41.047,52.507 36.6038,49.103 30.0352,49.103 Z" id="Shape" fill="#FFFFFF"></path>
            <polygon id="Path" fill="#FFFFFF" points="157.342 20.914 157.342 40.938 185.224 40.938 185.224 49.103 157.342 49.103 157.342 69.127 192.114 69.127 192.114 77.291 148.654 77.291 148.654 12.75 192.114 12.75 192.114 20.914"></polygon>
            <polygon id="Path" fill="#FFFFFF" points="237.987 33.289 223.344 12.75 213.393 12.75 233.042 40.217"></polygon>
            <polygon id="Path" fill="#FFFFFF" points="250.03 50.107 245.086 57.018 259.559 77.291 269.415 77.291"></polygon>
            <polygon id="Path" fill="#EF7150" points="211.064 95 201.208 95 269.054 0 279 0"></polygon>
            <path d="M106.84,50.658 C117.756,49.88 125.289,43.27 125.289,31.706 C125.289,19.558 116.888,12.755 104.81,12.755 L73.614,12.755 L73.614,20.92 L104.81,20.92 C111.762,20.92 116.594,24.71 116.594,31.706 C116.594,38.702 111.762,42.493 104.81,42.493 L73.614,42.493 L73.614,77.291 L82.308,77.291 L82.308,50.658 L96.02,50.658 L116.205,77.291 L127.025,77.291 L106.84,50.658 Z" id="Path" fill="#FFFFFF"></path>
        </g>
    </g>
</svg>