<svg width="214" height="104" viewBox="0 0 214 104" fill="none" xmlns="http://www.w3.org/2000/svg"><path fill-rule="evenodd" clip-rule="evenodd" d="M213.688 0H208.456L185.591 32.5857H185.593L154.488 76.9154H159.721L191.417 31.7423H191.416L213.688 0Z" fill="#D26E45"></path><path fill-rule="evenodd" clip-rule="evenodd" d="M24.2123 36.9673H4.4703V20.8449H24.2123C28.5991 20.8449 32.1679 24.4611 32.1679 28.9065C32.1679 33.3511 28.5991 36.9673 24.2123 36.9673ZM24.2123 57.4059H4.4703V41.2843H24.2123C28.5991 41.2843 32.1679 44.9005 32.1679 49.3451C32.1679 53.7897 28.5991 57.4059 24.2123 57.4059ZM31.0762 39.1278C34.436 36.8095 36.4279 33.0242 36.4279 28.9086C36.4279 22.0836 30.948 16.5305 24.2125 16.5305L0.210106 16.5613V61.415V61.7246H24.2125C30.948 61.7246 36.4279 56.172 36.4279 49.347C36.4279 45.2318 34.436 41.4465 31.0762 39.1278Z" fill="white"></path><path fill-rule="evenodd" clip-rule="evenodd" d="M148.746 20.8713V16.5544L112.459 16.5562V61.7195L148.746 61.7226V57.4057H116.719V41.2842H139.7V36.9677H116.719V20.8713H148.746Z" fill="white"></path><path fill-rule="evenodd" clip-rule="evenodd" d="M188.468 42.8939L185.856 46.6232L196.34 61.5909L196.432 61.7213H201.655L188.468 42.8939ZM170.015 16.5503H164.791L177.999 35.4063L180.611 31.6774L170.106 16.6807L170.015 16.5503Z" fill="white"></path><path fill-rule="evenodd" clip-rule="evenodd" d="M78.5307 41.2757L92.8472 61.7212H87.6241L87.5324 61.5908L73.3072 41.2757H60.6441V61.726H56.3842V36.9589H80.3605C84.746 36.9589 88.3139 33.344 88.3157 28.9003C88.3139 24.4561 84.746 20.8413 80.3605 20.8413H56.3842V16.5244H80.3605C87.0935 16.5244 92.5712 22.0731 92.5755 28.8946C92.5755 28.8954 92.576 28.8963 92.576 28.8976C92.576 28.8985 92.5755 28.8994 92.5755 28.9003C92.5755 28.9007 92.576 28.9016 92.576 28.9025C92.576 28.9038 92.5755 28.9047 92.5755 28.906C92.5712 35.727 87.0935 41.2757 80.3605 41.2757H78.8267H78.5307Z" fill="white"></path><path fill-rule="evenodd" clip-rule="evenodd" d="M7.0076 86.4001V103.631H10.9527V86.4001H17.3158V82.6201H0.644562V86.4001H7.0076ZM7.89709 102.744V102.744H10.0632V102.744H7.89709ZM1.53405 85.5132L1.53405 83.507H16.4263L16.4263 85.5132V83.507H1.53405V85.5132ZM114.15 82.6201L123.046 103.769H126.125L135.021 82.6201H130.784L124.614 97.7232L118.469 82.6201H114.15ZM115.488 83.507H117.87L124.612 100.079L117.87 83.507L115.488 83.507ZM169.106 82.6201H153.627V103.631H169.242V99.8786H157.545V94.9194H166.384V91.1669H157.545V86.3726H169.106V82.6201ZM168.217 83.507H154.516L168.217 83.507L168.217 85.4857V83.507ZM196.338 82.6201H192.42V103.631H207.007V99.8512H196.338V82.6201ZM195.449 83.507H193.31L195.449 83.507L195.449 100.738V83.507ZM38.4313 92.4311V103.631H42.3494V96.1561H46.4244L51.921 103.631H56.7609L50.6733 95.412C51.7606 95.0435 52.7338 94.4761 53.5028 93.6899C54.5886 92.5797 55.2108 91.0888 55.2108 89.2782V89.2232C55.2108 87.502 54.5931 85.925 53.4937 84.8092C52.0947 83.3892 49.9736 82.6201 47.4709 82.6201H38.4313V86.4001H47.3084C48.7126 86.4001 49.7056 86.7293 50.3281 87.2193C50.9236 87.688 51.2657 88.3689 51.2657 89.3056V89.3606C51.2657 90.3297 50.8796 91.0613 50.2329 91.571C49.5649 92.0974 48.5573 92.4311 47.2814 92.4311H38.4313ZM84.1982 82.4827L74.7699 103.631H78.9119L81.3933 98.0179L82.2353 96.0332L85.7484 88.0995L89.2369 96.0269L89.2416 96.0378L90.0763 98.0056L92.533 103.631H96.7862L87.3579 82.4827H84.1982ZM81.4187 95.6814L80.5793 97.6601L78.3319 102.744L80.5793 97.6601L81.4187 95.6814ZM206.117 102.744L193.31 102.744H206.117V100.738L206.117 102.744Z" fill="white"></path></svg>